<svg width="413" height="42" viewBox="0 0 413 42" fill="none" xmlns="http://www.w3.org/2000/svg">
<path d="M31.56 27.176C31.56 29.416 31.624 31.784 31.56 34.024C31.496 37.608 30.472 38.184 28.296 38.312C26.632 38.44 25.16 38.44 25.16 39.912C25.16 41.256 26.696 41.256 27.528 41.256C29.128 41.256 31.368 41 35.784 41C38.984 41 42.696 41.256 44.296 41.256C45.256 41.256 46.92 41.256 46.92 39.72C46.92 38.568 46.024 38.504 44.36 38.184C42.184 37.864 42.056 36.776 42.056 33.064C41.928 27.432 42.376 7.4 42.248 2.344C42.248 1.32 41.8 0.615997 39.496 0.615997C36.296 0.615997 34.888 1.128 33.544 2.792C25.288 13.096 17.672 22.76 9.992 32.232C7.368 35.432 5.64 37.608 3.272 38.184C1.928 38.568 0.84 38.824 0.84 39.912C0.84 40.296 0.968 41.256 2.76 41.256C4.488 41.256 6.536 41 8.52 41C10.76 41 12.936 41.256 15.112 41.256C16.136 41.256 17.672 41.192 17.672 39.848C17.672 38.76 16.712 38.504 15.56 38.312C14.344 38.12 12.808 37.864 12.808 36.328C12.808 35.432 13.512 34.216 14.28 33.128C15.688 31.144 17.224 28.968 18.312 27.624C18.632 27.176 18.824 27.176 19.336 27.176H31.56ZM31.688 23.848H21.064C24.648 19.304 28.168 14.888 31.688 10.344L31.816 10.408L31.688 23.848ZM54.9935 2.664C54.9935 4.008 56.7215 4.008 57.1695 4.008C58.1935 4.072 59.9215 4.136 59.9215 5.736C59.9215 6.44 59.4735 7.592 59.2175 8.296C56.4015 16.168 53.4575 24.04 50.5135 31.976C48.8495 36.584 48.2095 38.056 45.0095 38.376C43.1535 38.504 42.3855 38.952 42.3855 40.04C42.3855 41.064 43.7295 41.256 44.5615 41.256C45.7135 41.256 47.7615 41 50.0015 41C52.4975 41 54.9935 41.256 56.0175 41.256C56.9135 41.256 58.3215 41.128 58.3215 39.784C58.3215 38.632 57.2335 38.504 56.0815 38.376C54.9295 38.248 53.8415 37.8 53.8415 35.88C53.8415 33.832 55.3135 29.48 56.1455 27.176C58.3855 21.096 60.6895 15.08 62.9295 9.064H63.0575C63.1855 11.56 63.1855 13.992 63.3135 16.488C63.5055 23.336 63.6975 30.184 63.8895 36.968C63.8895 39.784 64.0815 40.936 66.3215 40.936C68.1135 40.936 68.5615 40.424 69.5855 38.952C76.3055 28.968 83.0895 19.048 89.8095 9.064L90.0015 9.128C87.9535 17.256 85.9055 25.448 83.8575 33.576C83.0895 36.456 82.5775 38.248 78.7375 38.312C77.7775 38.376 76.5615 38.696 76.5615 39.912C76.5615 41.256 78.4175 41.256 79.5695 41.256C80.8495 41.256 83.9855 41 87.2495 41C91.6015 41 95.2495 41.256 96.9775 41.256C97.8095 41.256 99.6015 41.256 99.6015 39.656C99.6015 38.632 98.5135 38.376 97.1055 38.376C96.0175 38.312 94.4175 38.056 94.4175 36.584C94.4175 35.88 94.7375 34.664 94.9935 33.512C97.1055 25.256 99.0895 17 101.138 8.808C102.162 4.776 102.802 4.2 105.618 4.072C106.13 4.008 107.922 3.88 107.922 2.472C107.922 1.576 107.09 1.128 105.426 1.128C103.826 1.128 100.626 1.32 98.3855 1.32C95.3775 1.32 94.0975 1.128 92.4335 1.128C90.8335 1.192 90.5135 1.832 89.2335 3.816C84.3055 10.92 79.3135 18.088 74.3855 25.256H74.2575C74.0655 18.152 73.8735 11.048 73.6815 4.008C73.6815 1.832 73.8095 1.128 72.3375 1.128C70.8015 1.128 67.9215 1.32 64.9135 1.32C61.6495 1.32 59.4735 1.128 57.8095 1.128C56.9775 1.128 54.9935 1.128 54.9935 2.6V2.664ZM114.527 36.136C114.527 35.112 115.167 33.064 115.423 32.104L122.207 9C123.295 5.416 123.551 4.392 126.495 4.2C128.479 4.008 129.823 3.944 129.823 2.472C129.823 1.128 128.159 1.128 127.647 1.128C125.151 1.128 122.591 1.384 118.175 1.384C114.207 1.384 111.839 1.128 109.727 1.128C108.831 1.128 106.399 1.064 106.399 2.728C106.399 4.072 107.999 4.2 108.575 4.136C110.303 4.136 111.711 4.264 111.711 5.736C111.711 6.504 111.455 7.4 111.071 8.68L104.031 32.552C102.879 36.584 102.303 37.864 99.7425 38.056C97.3105 38.248 95.9665 38.312 95.9665 39.848C95.9665 40.744 96.9905 41.256 98.4625 41.256C100.575 41.256 103.647 41 106.847 41C111.711 41 114.719 41.256 116.511 41.256C117.599 41.256 119.647 41.256 119.647 39.592C119.647 38.312 118.303 38.248 117.471 38.248C116.063 38.184 114.527 37.864 114.527 36.2V36.136ZM122.178 26.408C122.178 29.096 123.138 35.112 128.962 38.76C132.29 40.808 136.77 41.896 142.146 41.896C145.218 41.896 149.89 41.384 153.154 40.808C156.162 40.296 157.506 39.976 157.89 38.76L160.834 28.392C161.538 26.024 161.858 24.808 164.29 24.488C166.21 24.168 167.426 24.104 167.426 22.76C167.426 21.416 165.89 21.416 165.058 21.416C163.458 21.416 159.938 21.736 156.098 21.736C153.41 21.736 150.53 21.416 147.842 21.416C146.626 21.416 144.898 21.736 144.898 23.208C144.898 24.488 146.498 24.488 147.458 24.552C149.378 24.68 150.146 25.32 150.146 26.536C150.146 27.24 149.954 28.008 149.762 28.648L147.97 34.856C147.65 35.88 147.266 37.16 146.626 37.672C145.922 38.312 144.642 38.568 143.554 38.568C140.866 38.568 138.562 37.48 136.834 35.24C135.234 33.256 134.082 30.248 134.082 27.24C134.082 20.584 137.346 14.76 141.378 10.92C146.178 6.056 152.514 3.56 156.738 3.56C159.426 3.56 159.938 4.456 159.938 5.608C159.938 6.632 159.554 9.192 159.554 10.344C159.554 11.56 160.002 12.776 161.474 12.776C162.882 12.776 163.458 11.688 164.034 10.216C164.738 8.552 165.826 5.864 166.402 4.136C166.722 3.368 166.914 2.792 166.914 2.408C166.914 1.576 166.018 1.192 165.122 0.935997C163.202 0.295998 160.258 0.295998 158.402 0.295998C149.954 0.295998 141.442 2.728 134.978 6.76C127.554 11.368 122.178 18.536 122.178 26.344V26.408ZM190.468 27.176C190.468 29.416 190.532 31.784 190.468 34.024C190.404 37.608 189.38 38.184 187.204 38.312C185.54 38.44 184.068 38.44 184.068 39.912C184.068 41.256 185.604 41.256 186.436 41.256C188.036 41.256 190.276 41 194.692 41C197.892 41 201.604 41.256 203.204 41.256C204.164 41.256 205.828 41.256 205.828 39.72C205.828 38.568 204.932 38.504 203.268 38.184C201.092 37.864 200.964 36.776 200.964 33.064C200.836 27.432 201.284 7.4 201.156 2.344C201.156 1.32 200.708 0.615997 198.404 0.615997C195.204 0.615997 193.796 1.128 192.452 2.792C184.196 13.096 176.58 22.76 168.9 32.232C166.276 35.432 164.548 37.608 162.18 38.184C160.836 38.568 159.748 38.824 159.748 39.912C159.748 40.296 159.876 41.256 161.668 41.256C163.396 41.256 165.444 41 167.428 41C169.668 41 171.844 41.256 174.02 41.256C175.044 41.256 176.58 41.192 176.58 39.848C176.58 38.76 175.62 38.504 174.468 38.312C173.252 38.12 171.716 37.864 171.716 36.328C171.716 35.432 172.42 34.216 173.188 33.128C174.596 31.144 176.132 28.968 177.22 27.624C177.54 27.176 177.732 27.176 178.244 27.176H190.468ZM190.596 23.848H179.972C183.556 19.304 187.076 14.888 190.596 10.344L190.724 10.408L190.596 23.848ZM222.157 30.12C221.837 23.08 221.517 15.976 221.133 8.872V7.4C221.005 4.84 221.517 4.008 224.205 3.944C225.229 3.944 226.445 3.624 226.445 2.472C226.445 1.192 224.973 1.128 224.013 1.128C222.669 1.128 219.661 1.384 216.141 1.384C212.877 1.384 209.549 1.128 208.333 1.128C207.501 1.128 205.261 1.128 205.261 2.664C205.261 3.304 205.709 3.944 207.053 4.008C209.485 4.2 210.189 4.456 210.253 7.336C210.765 18.024 211.213 28.776 211.661 39.528C211.661 40.808 211.789 41.576 215.181 41.576C218.061 41.576 218.509 41.192 219.085 40.36C226.381 29.992 233.677 19.688 240.973 9.384C242.893 6.696 244.365 4.456 247.501 3.944C249.037 3.688 249.677 3.432 249.677 2.344C249.677 1.128 248.333 1.128 247.117 1.128C246.093 1.128 243.405 1.384 241.229 1.384C239.245 1.384 237.517 1.128 236.429 1.128C235.597 1.128 234.125 1.128 234.125 2.536C234.125 3.624 235.021 3.816 236.045 3.944C236.813 4.072 238.093 4.264 238.093 5.416C238.093 6.504 237.325 8.04 236.685 9C231.885 16.168 227.021 23.144 222.285 30.12H222.157ZM254.671 36.136C254.671 35.112 255.311 33.064 255.567 32.104L262.351 9C263.439 5.416 263.695 4.392 266.639 4.2C268.623 4.008 269.967 3.944 269.967 2.472C269.967 1.128 268.303 1.128 267.792 1.128C265.295 1.128 262.735 1.384 258.319 1.384C254.351 1.384 251.983 1.128 249.871 1.128C248.975 1.128 246.543 1.064 246.543 2.728C246.543 4.072 248.143 4.2 248.719 4.136C250.447 4.136 251.855 4.264 251.855 5.736C251.855 6.504 251.599 7.4 251.215 8.68L244.175 32.552C243.023 36.584 242.447 37.864 239.887 38.056C237.455 38.248 236.111 38.312 236.111 39.848C236.111 40.744 237.135 41.256 238.607 41.256C240.719 41.256 243.791 41 246.991 41C251.855 41 254.863 41.256 256.655 41.256C257.743 41.256 259.792 41.256 259.792 39.592C259.792 38.312 258.447 38.248 257.615 38.248C256.207 38.184 254.671 37.864 254.671 36.2V36.136ZM268.531 12.904C268.531 17.768 272.179 20.776 275.699 23.528C280.115 26.92 282.099 29.032 282.099 32.04C282.099 35.816 278.835 38.568 274.739 38.568C271.987 38.568 270.003 37.48 268.787 35.624C267.763 34.088 267.443 32.168 267.059 30.504C266.739 29.224 266.355 28.136 265.011 28.136C263.923 28.136 263.475 28.904 263.027 30.504C262.579 32.296 261.747 35.304 261.747 36.904C261.747 38.056 262.771 38.824 264.115 39.464C267.443 41.064 273.139 41.896 275.763 41.896C286.451 41.896 294.259 35.432 294.259 27.944C294.259 23.208 290.867 20.2 286.835 17.064C281.971 13.288 280.115 11.752 280.115 8.872C280.115 5.352 283.763 3.304 286.963 3.304C289.331 3.304 291.187 4.264 292.083 5.992C293.043 7.912 293.299 9.384 293.747 10.6C294.003 11.368 294.387 12.072 295.283 12.072C296.627 12.072 296.947 10.408 297.203 9.576C297.395 8.808 297.779 7.4 298.163 6.056C298.355 5.288 298.611 4.328 298.611 3.944C298.611 2.984 297.779 2.408 296.755 1.96C293.939 0.551998 289.395 0.295998 286.259 0.295998C278.451 0.295998 268.531 3.56 268.531 12.84V12.904ZM310.364 36.136C310.364 35.112 311.004 33.064 311.26 32.104L318.044 9C319.132 5.416 319.388 4.392 322.332 4.2C324.316 4.008 325.66 3.944 325.66 2.472C325.66 1.128 323.996 1.128 323.484 1.128C320.988 1.128 318.428 1.384 314.012 1.384C310.044 1.384 307.676 1.128 305.564 1.128C304.668 1.128 302.236 1.064 302.236 2.728C302.236 4.072 303.836 4.2 304.412 4.136C306.14 4.136 307.548 4.264 307.548 5.736C307.548 6.504 307.292 7.4 306.908 8.68L299.868 32.552C298.716 36.584 298.14 37.864 295.58 38.056C293.148 38.248 291.804 38.312 291.804 39.848C291.804 40.744 292.828 41.256 294.3 41.256C296.412 41.256 299.484 41 302.684 41C307.548 41 310.556 41.256 312.348 41.256C313.436 41.256 315.484 41.256 315.484 39.592C315.484 38.312 314.14 38.248 313.308 38.248C311.9 38.184 310.364 37.864 310.364 36.2V36.136ZM364.031 17.064C364.031 7.72 356.991 0.295998 346.111 0.295998C332.991 0.295998 320.767 10.664 320.767 24.616C320.767 29.544 322.623 33.896 326.143 37.16C329.407 40.296 333.695 41.896 338.815 41.896C352.831 41.896 364.031 29.928 364.031 17.128V17.064ZM346.303 3.496C351.103 3.496 353.215 6.952 353.215 12.008C353.215 18.088 349.695 28.456 346.943 33C345.471 35.624 342.399 38.696 338.367 38.696C334.143 38.696 331.455 35.496 331.455 30.44C331.455 27.048 333.055 20.328 335.295 14.824C337.855 8.616 341.503 3.496 346.239 3.496H346.303ZM396.118 27.496C392.406 19.56 388.63 11.56 384.918 3.624C384.086 1.96 384.022 1.128 382.614 1.128C381.462 1.128 378.966 1.32 376.214 1.32C373.27 1.32 371.414 1.128 370.326 1.128C368.918 1.128 367.574 1.128 367.574 2.472C367.574 3.944 368.918 4.008 369.814 4.008C370.838 4.008 372.438 4.2 372.438 5.672C372.438 6.312 372.118 7.464 371.798 8.488C369.494 16.424 367.19 24.296 364.822 32.232C364.246 34.216 363.606 36.072 362.646 37.224C361.878 38.056 360.854 38.248 359.574 38.376C358.422 38.504 357.59 38.824 357.59 39.848C357.59 41.256 359.382 41.256 360.278 41.256C361.302 41.256 363.094 41 365.142 41C367.51 41 370.39 41.256 371.094 41.256C371.862 41.256 373.462 41.256 373.462 39.784C373.462 38.76 372.63 38.44 371.35 38.248C369.878 38.12 368.47 37.8 368.47 35.816C368.47 34.024 369.238 31.272 369.814 29.288C371.67 22.568 373.526 15.912 375.382 9.256H375.51L390.038 40.168C390.806 41.512 390.55 41.64 393.622 41.64C395.99 41.64 396.182 41.32 396.502 40.232C399.51 29.992 402.582 19.752 405.526 9.512C406.742 5.608 407.382 4.456 409.558 4.264C411.67 4.008 412.822 3.88 412.822 2.536C412.822 1.128 411.286 1.128 410.774 1.128C409.75 1.128 407.446 1.384 405.27 1.384C403.03 1.384 401.366 1.128 400.47 1.128C399.382 1.128 397.334 1.128 397.334 2.728C397.334 3.816 398.358 4.008 399.318 4.072C400.726 4.136 402.262 4.264 402.262 5.8C402.262 6.888 401.942 7.976 401.622 8.936C399.894 15.144 398.102 21.352 396.246 27.496H396.118Z" fill="white"/>
</svg>
