<svg width="414" height="42" viewBox="0 0 414 42" fill="none" xmlns="http://www.w3.org/2000/svg">
<path d="M31.56 27.176C31.56 29.416 31.624 31.784 31.56 34.024C31.496 37.608 30.472 38.184 28.296 38.312C26.632 38.44 25.16 38.44 25.16 39.912C25.16 41.256 26.696 41.256 27.528 41.256C29.128 41.256 31.368 41 35.784 41C38.984 41 42.696 41.256 44.296 41.256C45.256 41.256 46.92 41.256 46.92 39.72C46.92 38.568 46.024 38.504 44.36 38.184C42.184 37.864 42.056 36.776 42.056 33.064C41.928 27.432 42.376 7.4 42.248 2.344C42.248 1.32 41.8 0.615997 39.496 0.615997C36.296 0.615997 34.888 1.128 33.544 2.792C25.288 13.096 17.672 22.76 9.992 32.232C7.368 35.432 5.64 37.608 3.272 38.184C1.928 38.568 0.84 38.824 0.84 39.912C0.84 40.296 0.968 41.256 2.76 41.256C4.488 41.256 6.536 41 8.52 41C10.76 41 12.936 41.256 15.112 41.256C16.136 41.256 17.672 41.192 17.672 39.848C17.672 38.76 16.712 38.504 15.56 38.312C14.344 38.12 12.808 37.864 12.808 36.328C12.808 35.432 13.512 34.216 14.28 33.128C15.688 31.144 17.224 28.968 18.312 27.624C18.632 27.176 18.824 27.176 19.336 27.176H31.56ZM31.688 23.848H21.064C24.648 19.304 28.168 14.888 31.688 10.344L31.816 10.408L31.688 23.848ZM54.9935 2.664C54.9935 4.008 56.7215 4.008 57.1695 4.008C58.1935 4.072 59.9215 4.136 59.9215 5.736C59.9215 6.44 59.4735 7.592 59.2175 8.296C56.4015 16.168 53.4575 24.04 50.5135 31.976C48.8495 36.584 48.2095 38.056 45.0095 38.376C43.1535 38.504 42.3855 38.952 42.3855 40.04C42.3855 41.064 43.7295 41.256 44.5615 41.256C45.7135 41.256 47.7615 41 50.0015 41C52.4975 41 54.9935 41.256 56.0175 41.256C56.9135 41.256 58.3215 41.128 58.3215 39.784C58.3215 38.632 57.2335 38.504 56.0815 38.376C54.9295 38.248 53.8415 37.8 53.8415 35.88C53.8415 33.832 55.3135 29.48 56.1455 27.176C58.3855 21.096 60.6895 15.08 62.9295 9.064H63.0575C63.1855 11.56 63.1855 13.992 63.3135 16.488C63.5055 23.336 63.6975 30.184 63.8895 36.968C63.8895 39.784 64.0815 40.936 66.3215 40.936C68.1135 40.936 68.5615 40.424 69.5855 38.952C76.3055 28.968 83.0895 19.048 89.8095 9.064L90.0015 9.128C87.9535 17.256 85.9055 25.448 83.8575 33.576C83.0895 36.456 82.5775 38.248 78.7375 38.312C77.7775 38.376 76.5615 38.696 76.5615 39.912C76.5615 41.256 78.4175 41.256 79.5695 41.256C80.8495 41.256 83.9855 41 87.2495 41C91.6015 41 95.2495 41.256 96.9775 41.256C97.8095 41.256 99.6015 41.256 99.6015 39.656C99.6015 38.632 98.5135 38.376 97.1055 38.376C96.0175 38.312 94.4175 38.056 94.4175 36.584C94.4175 35.88 94.7375 34.664 94.9935 33.512C97.1055 25.256 99.0895 17 101.138 8.808C102.162 4.776 102.802 4.2 105.618 4.072C106.13 4.008 107.922 3.88 107.922 2.472C107.922 1.576 107.09 1.128 105.426 1.128C103.826 1.128 100.626 1.32 98.3855 1.32C95.3775 1.32 94.0975 1.128 92.4335 1.128C90.8335 1.192 90.5135 1.832 89.2335 3.816C84.3055 10.92 79.3135 18.088 74.3855 25.256H74.2575C74.0655 18.152 73.8735 11.048 73.6815 4.008C73.6815 1.832 73.8095 1.128 72.3375 1.128C70.8015 1.128 67.9215 1.32 64.9135 1.32C61.6495 1.32 59.4735 1.128 57.8095 1.128C56.9775 1.128 54.9935 1.128 54.9935 2.6V2.664ZM115.167 36.136C115.167 35.112 115.807 33.064 116.063 32.104L122.847 9C123.935 5.416 124.191 4.392 127.135 4.2C129.119 4.008 130.463 3.944 130.463 2.472C130.463 1.128 128.799 1.128 128.287 1.128C125.791 1.128 123.231 1.384 118.815 1.384C114.847 1.384 112.479 1.128 110.367 1.128C109.471 1.128 107.039 1.064 107.039 2.728C107.039 4.072 108.639 4.2 109.215 4.136C110.943 4.136 112.351 4.264 112.351 5.736C112.351 6.504 112.095 7.4 111.711 8.68L104.671 32.552C103.519 36.584 102.943 37.864 100.383 38.056C97.9505 38.248 96.6065 38.312 96.6065 39.848C96.6065 40.744 97.6305 41.256 99.1025 41.256C101.215 41.256 104.287 41 107.487 41C112.351 41 115.359 41.256 117.151 41.256C118.239 41.256 120.287 41.256 120.287 39.592C120.287 38.312 118.943 38.248 118.111 38.248C116.703 38.184 115.167 37.864 115.167 36.2V36.136ZM122.818 26.408C122.818 29.096 123.778 35.112 129.602 38.76C132.93 40.808 137.41 41.896 142.786 41.896C145.858 41.896 150.53 41.384 153.794 40.808C156.802 40.296 158.146 39.976 158.53 38.76L161.474 28.392C162.178 26.024 162.498 24.808 164.93 24.488C166.85 24.168 168.066 24.104 168.066 22.76C168.066 21.416 166.53 21.416 165.698 21.416C164.098 21.416 160.578 21.736 156.738 21.736C154.05 21.736 151.17 21.416 148.482 21.416C147.266 21.416 145.538 21.736 145.538 23.208C145.538 24.488 147.138 24.488 148.098 24.552C150.018 24.68 150.786 25.32 150.786 26.536C150.786 27.24 150.594 28.008 150.402 28.648L148.61 34.856C148.29 35.88 147.906 37.16 147.266 37.672C146.562 38.312 145.282 38.568 144.194 38.568C141.506 38.568 139.202 37.48 137.474 35.24C135.874 33.256 134.722 30.248 134.722 27.24C134.722 20.584 137.986 14.76 142.018 10.92C146.818 6.056 153.154 3.56 157.378 3.56C160.066 3.56 160.578 4.456 160.578 5.608C160.578 6.632 160.194 9.192 160.194 10.344C160.194 11.56 160.642 12.776 162.114 12.776C163.522 12.776 164.098 11.688 164.674 10.216C165.378 8.552 166.466 5.864 167.042 4.136C167.362 3.368 167.554 2.792 167.554 2.408C167.554 1.576 166.658 1.192 165.762 0.935997C163.842 0.295998 160.898 0.295998 159.042 0.295998C150.594 0.295998 142.082 2.728 135.618 6.76C128.194 11.368 122.818 18.536 122.818 26.344V26.408ZM191.108 27.176C191.108 29.416 191.172 31.784 191.108 34.024C191.044 37.608 190.02 38.184 187.844 38.312C186.18 38.44 184.708 38.44 184.708 39.912C184.708 41.256 186.244 41.256 187.076 41.256C188.676 41.256 190.916 41 195.332 41C198.532 41 202.244 41.256 203.844 41.256C204.804 41.256 206.468 41.256 206.468 39.72C206.468 38.568 205.572 38.504 203.908 38.184C201.732 37.864 201.604 36.776 201.604 33.064C201.476 27.432 201.924 7.4 201.796 2.344C201.796 1.32 201.348 0.615997 199.044 0.615997C195.844 0.615997 194.436 1.128 193.092 2.792C184.836 13.096 177.22 22.76 169.54 32.232C166.916 35.432 165.188 37.608 162.82 38.184C161.476 38.568 160.388 38.824 160.388 39.912C160.388 40.296 160.516 41.256 162.308 41.256C164.036 41.256 166.084 41 168.068 41C170.308 41 172.484 41.256 174.66 41.256C175.684 41.256 177.22 41.192 177.22 39.848C177.22 38.76 176.26 38.504 175.108 38.312C173.892 38.12 172.356 37.864 172.356 36.328C172.356 35.432 173.06 34.216 173.828 33.128C175.236 31.144 176.772 28.968 177.86 27.624C178.18 27.176 178.372 27.176 178.884 27.176H191.108ZM191.236 23.848H180.612C184.196 19.304 187.716 14.888 191.236 10.344L191.364 10.408L191.236 23.848ZM222.797 30.12C222.477 23.08 222.157 15.976 221.773 8.872V7.4C221.645 4.84 222.157 4.008 224.845 3.944C225.869 3.944 227.085 3.624 227.085 2.472C227.085 1.192 225.613 1.128 224.653 1.128C223.309 1.128 220.301 1.384 216.781 1.384C213.517 1.384 210.189 1.128 208.973 1.128C208.141 1.128 205.901 1.128 205.901 2.664C205.901 3.304 206.349 3.944 207.693 4.008C210.125 4.2 210.829 4.456 210.893 7.336C211.405 18.024 211.853 28.776 212.301 39.528C212.301 40.808 212.429 41.576 215.821 41.576C218.701 41.576 219.149 41.192 219.725 40.36C227.021 29.992 234.317 19.688 241.613 9.384C243.533 6.696 245.005 4.456 248.141 3.944C249.677 3.688 250.317 3.432 250.317 2.344C250.317 1.128 248.973 1.128 247.757 1.128C246.733 1.128 244.045 1.384 241.869 1.384C239.885 1.384 238.157 1.128 237.069 1.128C236.237 1.128 234.765 1.128 234.765 2.536C234.765 3.624 235.661 3.816 236.685 3.944C237.453 4.072 238.733 4.264 238.733 5.416C238.733 6.504 237.965 8.04 237.325 9C232.525 16.168 227.661 23.144 222.925 30.12H222.797ZM255.311 36.136C255.311 35.112 255.951 33.064 256.207 32.104L262.991 9C264.079 5.416 264.335 4.392 267.279 4.2C269.263 4.008 270.607 3.944 270.607 2.472C270.607 1.128 268.943 1.128 268.431 1.128C265.935 1.128 263.375 1.384 258.959 1.384C254.991 1.384 252.623 1.128 250.511 1.128C249.615 1.128 247.183 1.064 247.183 2.728C247.183 4.072 248.783 4.2 249.359 4.136C251.087 4.136 252.495 4.264 252.495 5.736C252.495 6.504 252.239 7.4 251.855 8.68L244.815 32.552C243.663 36.584 243.087 37.864 240.527 38.056C238.095 38.248 236.751 38.312 236.751 39.848C236.751 40.744 237.775 41.256 239.247 41.256C241.359 41.256 244.431 41 247.631 41C252.495 41 255.503 41.256 257.295 41.256C258.383 41.256 260.431 41.256 260.431 39.592C260.431 38.312 259.087 38.248 258.255 38.248C256.847 38.184 255.311 37.864 255.311 36.2V36.136ZM269.171 12.904C269.171 17.768 272.819 20.776 276.339 23.528C280.755 26.92 282.739 29.032 282.739 32.04C282.739 35.816 279.475 38.568 275.379 38.568C272.627 38.568 270.643 37.48 269.427 35.624C268.403 34.088 268.083 32.168 267.699 30.504C267.379 29.224 266.995 28.136 265.651 28.136C264.563 28.136 264.115 28.904 263.667 30.504C263.219 32.296 262.387 35.304 262.387 36.904C262.387 38.056 263.411 38.824 264.755 39.464C268.083 41.064 273.779 41.896 276.403 41.896C287.091 41.896 294.899 35.432 294.899 27.944C294.899 23.208 291.507 20.2 287.475 17.064C282.611 13.288 280.755 11.752 280.755 8.872C280.755 5.352 284.403 3.304 287.603 3.304C289.971 3.304 291.827 4.264 292.723 5.992C293.683 7.912 293.939 9.384 294.387 10.6C294.643 11.368 295.027 12.072 295.923 12.072C297.267 12.072 297.587 10.408 297.843 9.576C298.035 8.808 298.419 7.4 298.803 6.056C298.995 5.288 299.251 4.328 299.251 3.944C299.251 2.984 298.419 2.408 297.395 1.96C294.579 0.551998 290.035 0.295998 286.899 0.295998C279.091 0.295998 269.171 3.56 269.171 12.84V12.904ZM311.004 36.136C311.004 35.112 311.644 33.064 311.9 32.104L318.684 9C319.772 5.416 320.028 4.392 322.972 4.2C324.956 4.008 326.3 3.944 326.3 2.472C326.3 1.128 324.636 1.128 324.124 1.128C321.628 1.128 319.068 1.384 314.652 1.384C310.684 1.384 308.316 1.128 306.204 1.128C305.308 1.128 302.876 1.064 302.876 2.728C302.876 4.072 304.476 4.2 305.052 4.136C306.78 4.136 308.188 4.264 308.188 5.736C308.188 6.504 307.932 7.4 307.548 8.68L300.508 32.552C299.356 36.584 298.78 37.864 296.22 38.056C293.788 38.248 292.444 38.312 292.444 39.848C292.444 40.744 293.468 41.256 294.94 41.256C297.052 41.256 300.124 41 303.324 41C308.188 41 311.196 41.256 312.988 41.256C314.076 41.256 316.124 41.256 316.124 39.592C316.124 38.312 314.78 38.248 313.948 38.248C312.54 38.184 311.004 37.864 311.004 36.2V36.136ZM364.672 17.064C364.672 7.72 357.632 0.295998 346.752 0.295998C333.632 0.295998 321.408 10.664 321.408 24.616C321.408 29.544 323.264 33.896 326.784 37.16C330.048 40.296 334.336 41.896 339.456 41.896C353.472 41.896 364.672 29.928 364.672 17.128V17.064ZM346.944 3.496C351.744 3.496 353.856 6.952 353.856 12.008C353.856 18.088 350.336 28.456 347.584 33C346.112 35.624 343.04 38.696 339.008 38.696C334.784 38.696 332.096 35.496 332.096 30.44C332.096 27.048 333.696 20.328 335.936 14.824C338.496 8.616 342.144 3.496 346.88 3.496H346.944ZM396.758 27.496C393.046 19.56 389.27 11.56 385.558 3.624C384.726 1.96 384.662 1.128 383.254 1.128C382.102 1.128 379.606 1.32 376.854 1.32C373.91 1.32 372.054 1.128 370.966 1.128C369.558 1.128 368.214 1.128 368.214 2.472C368.214 3.944 369.558 4.008 370.454 4.008C371.478 4.008 373.078 4.2 373.078 5.672C373.078 6.312 372.758 7.464 372.438 8.488C370.134 16.424 367.83 24.296 365.462 32.232C364.886 34.216 364.246 36.072 363.286 37.224C362.518 38.056 361.494 38.248 360.214 38.376C359.062 38.504 358.23 38.824 358.23 39.848C358.23 41.256 360.022 41.256 360.918 41.256C361.942 41.256 363.734 41 365.782 41C368.15 41 371.03 41.256 371.734 41.256C372.502 41.256 374.102 41.256 374.102 39.784C374.102 38.76 373.27 38.44 371.99 38.248C370.518 38.12 369.11 37.8 369.11 35.816C369.11 34.024 369.878 31.272 370.454 29.288C372.31 22.568 374.166 15.912 376.022 9.256H376.15L390.678 40.168C391.446 41.512 391.19 41.64 394.262 41.64C396.63 41.64 396.822 41.32 397.142 40.232C400.15 29.992 403.222 19.752 406.166 9.512C407.382 5.608 408.022 4.456 410.198 4.264C412.31 4.008 413.462 3.88 413.462 2.536C413.462 1.128 411.926 1.128 411.414 1.128C410.39 1.128 408.086 1.384 405.91 1.384C403.67 1.384 402.006 1.128 401.11 1.128C400.022 1.128 397.974 1.128 397.974 2.728C397.974 3.816 398.998 4.008 399.958 4.072C401.366 4.136 402.902 4.264 402.902 5.8C402.902 6.888 402.582 7.976 402.262 8.936C400.534 15.144 398.742 21.352 396.886 27.496H396.758Z" fill="white"/>
</svg>
