<svg width="399" height="42" viewBox="0 0 399 42" fill="none" xmlns="http://www.w3.org/2000/svg">
<path d="M31.56 27.176C31.56 29.416 31.624 31.784 31.56 34.024C31.496 37.608 30.472 38.184 28.296 38.312C26.632 38.44 25.16 38.44 25.16 39.912C25.16 41.256 26.696 41.256 27.528 41.256C29.128 41.256 31.368 41 35.784 41C38.984 41 42.696 41.256 44.296 41.256C45.256 41.256 46.92 41.256 46.92 39.72C46.92 38.568 46.024 38.504 44.36 38.184C42.184 37.864 42.056 36.776 42.056 33.064C41.928 27.432 42.376 7.4 42.248 2.344C42.248 1.32 41.8 0.615997 39.496 0.615997C36.296 0.615997 34.888 1.128 33.544 2.792C25.288 13.096 17.672 22.76 9.992 32.232C7.368 35.432 5.64 37.608 3.272 38.184C1.928 38.568 0.84 38.824 0.84 39.912C0.84 40.296 0.968 41.256 2.76 41.256C4.488 41.256 6.536 41 8.52 41C10.76 41 12.936 41.256 15.112 41.256C16.136 41.256 17.672 41.192 17.672 39.848C17.672 38.76 16.712 38.504 15.56 38.312C14.344 38.12 12.808 37.864 12.808 36.328C12.808 35.432 13.512 34.216 14.28 33.128C15.688 31.144 17.224 28.968 18.312 27.624C18.632 27.176 18.824 27.176 19.336 27.176H31.56ZM31.688 23.848H21.064C24.648 19.304 28.168 14.888 31.688 10.344L31.816 10.408L31.688 23.848ZM54.3535 2.664C54.3535 4.008 56.0815 4.008 56.5295 4.008C57.5535 4.072 59.2815 4.136 59.2815 5.736C59.2815 6.44 58.8335 7.592 58.5775 8.296C55.7615 16.168 52.8175 24.04 49.8735 31.976C48.2095 36.584 47.5695 38.056 44.3695 38.376C42.5135 38.504 41.7455 38.952 41.7455 40.04C41.7455 41.064 43.0895 41.256 43.9215 41.256C45.0735 41.256 47.1215 41 49.3615 41C51.8575 41 54.3535 41.256 55.3775 41.256C56.2735 41.256 57.6815 41.128 57.6815 39.784C57.6815 38.632 56.5935 38.504 55.4415 38.376C54.2895 38.248 53.2015 37.8 53.2015 35.88C53.2015 33.832 54.6735 29.48 55.5055 27.176C57.7455 21.096 60.0495 15.08 62.2895 9.064H62.4175C62.5455 11.56 62.5455 13.992 62.6735 16.488C62.8655 23.336 63.0575 30.184 63.2495 36.968C63.2495 39.784 63.4415 40.936 65.6815 40.936C67.4735 40.936 67.9215 40.424 68.9455 38.952C75.6655 28.968 82.4495 19.048 89.1695 9.064L89.3615 9.128C87.3135 17.256 85.2655 25.448 83.2175 33.576C82.4495 36.456 81.9375 38.248 78.0975 38.312C77.1375 38.376 75.9215 38.696 75.9215 39.912C75.9215 41.256 77.7775 41.256 78.9295 41.256C80.2095 41.256 83.3455 41 86.6095 41C90.9615 41 94.6095 41.256 96.3375 41.256C97.1695 41.256 98.9615 41.256 98.9615 39.656C98.9615 38.632 97.8735 38.376 96.4655 38.376C95.3775 38.312 93.7775 38.056 93.7775 36.584C93.7775 35.88 94.0975 34.664 94.3535 33.512C96.4655 25.256 98.4495 17 100.498 8.808C101.522 4.776 102.162 4.2 104.978 4.072C105.49 4.008 107.282 3.88 107.282 2.472C107.282 1.576 106.45 1.128 104.786 1.128C103.186 1.128 99.9855 1.32 97.7455 1.32C94.7375 1.32 93.4575 1.128 91.7935 1.128C90.1935 1.192 89.8735 1.832 88.5935 3.816C83.6655 10.92 78.6735 18.088 73.7455 25.256H73.6175C73.4255 18.152 73.2335 11.048 73.0415 4.008C73.0415 1.832 73.1695 1.128 71.6975 1.128C70.1615 1.128 67.2815 1.32 64.2735 1.32C61.0095 1.32 58.8335 1.128 57.1695 1.128C56.3375 1.128 54.3535 1.128 54.3535 2.6V2.664ZM113.887 36.136C113.887 35.112 114.527 33.064 114.783 32.104L121.567 9C122.655 5.416 122.911 4.392 125.855 4.2C127.839 4.008 129.183 3.944 129.183 2.472C129.183 1.128 127.519 1.128 127.007 1.128C124.511 1.128 121.951 1.384 117.535 1.384C113.567 1.384 111.199 1.128 109.087 1.128C108.191 1.128 105.759 1.064 105.759 2.728C105.759 4.072 107.359 4.2 107.935 4.136C109.663 4.136 111.071 4.264 111.071 5.736C111.071 6.504 110.815 7.4 110.431 8.68L103.391 32.552C102.239 36.584 101.663 37.864 99.1025 38.056C96.6705 38.248 95.3265 38.312 95.3265 39.848C95.3265 40.744 96.3505 41.256 97.8225 41.256C99.9345 41.256 103.007 41 106.207 41C111.071 41 114.079 41.256 115.871 41.256C116.959 41.256 119.007 41.256 119.007 39.592C119.007 38.312 117.663 38.248 116.831 38.248C115.423 38.184 113.887 37.864 113.887 36.2V36.136ZM120.898 26.408C120.898 29.096 121.858 35.112 127.682 38.76C131.01 40.808 135.49 41.896 140.866 41.896C143.938 41.896 148.61 41.384 151.874 40.808C154.882 40.296 156.226 39.976 156.61 38.76L159.554 28.392C160.258 26.024 160.578 24.808 163.01 24.488C164.93 24.168 166.146 24.104 166.146 22.76C166.146 21.416 164.61 21.416 163.778 21.416C162.178 21.416 158.658 21.736 154.818 21.736C152.13 21.736 149.25 21.416 146.562 21.416C145.346 21.416 143.618 21.736 143.618 23.208C143.618 24.488 145.218 24.488 146.178 24.552C148.098 24.68 148.866 25.32 148.866 26.536C148.866 27.24 148.674 28.008 148.482 28.648L146.69 34.856C146.37 35.88 145.986 37.16 145.346 37.672C144.642 38.312 143.362 38.568 142.274 38.568C139.586 38.568 137.282 37.48 135.554 35.24C133.954 33.256 132.802 30.248 132.802 27.24C132.802 20.584 136.066 14.76 140.098 10.92C144.898 6.056 151.234 3.56 155.458 3.56C158.146 3.56 158.658 4.456 158.658 5.608C158.658 6.632 158.274 9.192 158.274 10.344C158.274 11.56 158.722 12.776 160.194 12.776C161.602 12.776 162.178 11.688 162.754 10.216C163.458 8.552 164.546 5.864 165.122 4.136C165.442 3.368 165.634 2.792 165.634 2.408C165.634 1.576 164.738 1.192 163.842 0.935997C161.922 0.295998 158.978 0.295998 157.122 0.295998C148.674 0.295998 140.162 2.728 133.698 6.76C126.274 11.368 120.898 18.536 120.898 26.344V26.408ZM187.268 27.176C187.268 29.416 187.332 31.784 187.268 34.024C187.204 37.608 186.18 38.184 184.004 38.312C182.34 38.44 180.868 38.44 180.868 39.912C180.868 41.256 182.404 41.256 183.236 41.256C184.836 41.256 187.076 41 191.492 41C194.692 41 198.404 41.256 200.004 41.256C200.964 41.256 202.628 41.256 202.628 39.72C202.628 38.568 201.732 38.504 200.068 38.184C197.892 37.864 197.764 36.776 197.764 33.064C197.636 27.432 198.084 7.4 197.956 2.344C197.956 1.32 197.508 0.615997 195.204 0.615997C192.004 0.615997 190.596 1.128 189.252 2.792C180.996 13.096 173.38 22.76 165.7 32.232C163.076 35.432 161.348 37.608 158.98 38.184C157.636 38.568 156.548 38.824 156.548 39.912C156.548 40.296 156.676 41.256 158.468 41.256C160.196 41.256 162.244 41 164.228 41C166.468 41 168.644 41.256 170.82 41.256C171.844 41.256 173.38 41.192 173.38 39.848C173.38 38.76 172.42 38.504 171.268 38.312C170.052 38.12 168.516 37.864 168.516 36.328C168.516 35.432 169.22 34.216 169.988 33.128C171.396 31.144 172.932 28.968 174.02 27.624C174.34 27.176 174.532 27.176 175.044 27.176H187.268ZM187.396 23.848H176.772C180.356 19.304 183.876 14.888 187.396 10.344L187.524 10.408L187.396 23.848ZM217.874 30.12C217.554 23.08 217.234 15.976 216.85 8.872V7.4C216.722 4.84 217.234 4.008 219.922 3.944C220.946 3.944 222.162 3.624 222.162 2.472C222.162 1.192 220.69 1.128 219.73 1.128C218.386 1.128 215.378 1.384 211.858 1.384C208.594 1.384 205.266 1.128 204.05 1.128C203.218 1.128 200.978 1.128 200.978 2.664C200.978 3.304 201.426 3.944 202.77 4.008C205.202 4.2 205.906 4.456 205.97 7.336C206.482 18.024 206.93 28.776 207.378 39.528C207.378 40.808 207.506 41.576 210.898 41.576C213.778 41.576 214.226 41.192 214.802 40.36C222.098 29.992 229.394 19.688 236.69 9.384C238.61 6.696 240.082 4.456 243.218 3.944C244.754 3.688 245.394 3.432 245.394 2.344C245.394 1.128 244.05 1.128 242.834 1.128C241.81 1.128 239.122 1.384 236.946 1.384C234.962 1.384 233.234 1.128 232.146 1.128C231.314 1.128 229.842 1.128 229.842 2.536C229.842 3.624 230.738 3.816 231.762 3.944C232.53 4.072 233.81 4.264 233.81 5.416C233.81 6.504 233.042 8.04 232.402 9C227.602 16.168 222.738 23.144 218.002 30.12H217.874ZM248.469 36.136C248.469 35.112 249.109 33.064 249.365 32.104L256.149 9C257.237 5.416 257.493 4.392 260.437 4.2C262.421 4.008 263.765 3.944 263.765 2.472C263.765 1.128 262.101 1.128 261.589 1.128C259.093 1.128 256.533 1.384 252.117 1.384C248.149 1.384 245.781 1.128 243.669 1.128C242.773 1.128 240.341 1.064 240.341 2.728C240.341 4.072 241.941 4.2 242.517 4.136C244.245 4.136 245.653 4.264 245.653 5.736C245.653 6.504 245.397 7.4 245.013 8.68L237.973 32.552C236.821 36.584 236.245 37.864 233.685 38.056C231.253 38.248 229.909 38.312 229.909 39.848C229.909 40.744 230.933 41.256 232.405 41.256C234.517 41.256 237.589 41 240.789 41C245.653 41 248.661 41.256 250.453 41.256C251.541 41.256 253.589 41.256 253.589 39.592C253.589 38.312 252.245 38.248 251.413 38.248C250.005 38.184 248.469 37.864 248.469 36.2V36.136ZM259.769 12.904C259.769 17.768 263.417 20.776 266.937 23.528C271.353 26.92 273.337 29.032 273.337 32.04C273.337 35.816 270.073 38.568 265.977 38.568C263.225 38.568 261.241 37.48 260.025 35.624C259.001 34.088 258.681 32.168 258.297 30.504C257.977 29.224 257.593 28.136 256.249 28.136C255.161 28.136 254.713 28.904 254.265 30.504C253.817 32.296 252.985 35.304 252.985 36.904C252.985 38.056 254.009 38.824 255.353 39.464C258.681 41.064 264.377 41.896 267.001 41.896C277.689 41.896 285.497 35.432 285.497 27.944C285.497 23.208 282.105 20.2 278.073 17.064C273.209 13.288 271.353 11.752 271.353 8.872C271.353 5.352 275.001 3.304 278.201 3.304C280.569 3.304 282.425 4.264 283.321 5.992C284.281 7.912 284.537 9.384 284.985 10.6C285.241 11.368 285.625 12.072 286.521 12.072C287.865 12.072 288.185 10.408 288.441 9.576C288.633 8.808 289.017 7.4 289.401 6.056C289.593 5.288 289.849 4.328 289.849 3.944C289.849 2.984 289.017 2.408 287.993 1.96C285.177 0.551998 280.633 0.295998 277.497 0.295998C269.689 0.295998 259.769 3.56 259.769 12.84V12.904ZM299.042 36.136C299.042 35.112 299.682 33.064 299.938 32.104L306.722 9C307.81 5.416 308.066 4.392 311.01 4.2C312.994 4.008 314.338 3.944 314.338 2.472C314.338 1.128 312.674 1.128 312.162 1.128C309.666 1.128 307.106 1.384 302.69 1.384C298.722 1.384 296.354 1.128 294.242 1.128C293.346 1.128 290.914 1.064 290.914 2.728C290.914 4.072 292.514 4.2 293.09 4.136C294.818 4.136 296.226 4.264 296.226 5.736C296.226 6.504 295.97 7.4 295.586 8.68L288.546 32.552C287.394 36.584 286.818 37.864 284.258 38.056C281.826 38.248 280.482 38.312 280.482 39.848C280.482 40.744 281.506 41.256 282.978 41.256C285.09 41.256 288.162 41 291.362 41C296.226 41 299.234 41.256 301.026 41.256C302.114 41.256 304.162 41.256 304.162 39.592C304.162 38.312 302.818 38.248 301.986 38.248C300.578 38.184 299.042 37.864 299.042 36.2V36.136ZM350.149 17.064C350.149 7.72 343.109 0.295998 332.229 0.295998C319.109 0.295998 306.885 10.664 306.885 24.616C306.885 29.544 308.741 33.896 312.261 37.16C315.525 40.296 319.813 41.896 324.933 41.896C338.949 41.896 350.149 29.928 350.149 17.128V17.064ZM332.421 3.496C337.221 3.496 339.333 6.952 339.333 12.008C339.333 18.088 335.813 28.456 333.061 33C331.589 35.624 328.517 38.696 324.485 38.696C320.261 38.696 317.573 35.496 317.573 30.44C317.573 27.048 319.173 20.328 321.413 14.824C323.973 8.616 327.621 3.496 332.357 3.496H332.421ZM381.595 27.496C377.883 19.56 374.107 11.56 370.395 3.624C369.563 1.96 369.499 1.128 368.091 1.128C366.939 1.128 364.443 1.32 361.691 1.32C358.747 1.32 356.891 1.128 355.803 1.128C354.395 1.128 353.051 1.128 353.051 2.472C353.051 3.944 354.395 4.008 355.291 4.008C356.315 4.008 357.915 4.2 357.915 5.672C357.915 6.312 357.595 7.464 357.275 8.488C354.971 16.424 352.667 24.296 350.299 32.232C349.723 34.216 349.083 36.072 348.123 37.224C347.355 38.056 346.331 38.248 345.051 38.376C343.899 38.504 343.067 38.824 343.067 39.848C343.067 41.256 344.859 41.256 345.755 41.256C346.779 41.256 348.571 41 350.619 41C352.987 41 355.867 41.256 356.571 41.256C357.339 41.256 358.939 41.256 358.939 39.784C358.939 38.76 358.107 38.44 356.827 38.248C355.355 38.12 353.947 37.8 353.947 35.816C353.947 34.024 354.715 31.272 355.291 29.288C357.147 22.568 359.003 15.912 360.859 9.256H360.987L375.515 40.168C376.283 41.512 376.027 41.64 379.099 41.64C381.467 41.64 381.659 41.32 381.979 40.232C384.987 29.992 388.059 19.752 391.003 9.512C392.219 5.608 392.859 4.456 395.035 4.264C397.147 4.008 398.299 3.88 398.299 2.536C398.299 1.128 396.763 1.128 396.251 1.128C395.227 1.128 392.923 1.384 390.747 1.384C388.507 1.384 386.843 1.128 385.947 1.128C384.859 1.128 382.811 1.128 382.811 2.728C382.811 3.816 383.835 4.008 384.795 4.072C386.203 4.136 387.739 4.264 387.739 5.8C387.739 6.888 387.419 7.976 387.099 8.936C385.371 15.144 383.579 21.352 381.723 27.496H381.595Z" fill="white"/>
</svg>
