<svg width="90" height="42" viewBox="0 0 90 42" fill="none" xmlns="http://www.w3.org/2000/svg">
<path d="M31.56 27.176C31.56 29.416 31.624 31.784 31.56 34.024C31.496 37.608 30.472 38.184 28.296 38.312C26.632 38.44 25.16 38.44 25.16 39.912C25.16 41.256 26.696 41.256 27.528 41.256C29.128 41.256 31.368 41 35.784 41C38.984 41 42.696 41.256 44.296 41.256C45.256 41.256 46.92 41.256 46.92 39.72C46.92 38.568 46.024 38.504 44.36 38.184C42.184 37.864 42.056 36.776 42.056 33.064C41.928 27.432 42.376 7.4 42.248 2.344C42.248 1.32 41.8 0.615997 39.496 0.615997C36.296 0.615997 34.888 1.128 33.544 2.792C25.288 13.096 17.672 22.76 9.992 32.232C7.368 35.432 5.64 37.608 3.272 38.184C1.928 38.568 0.84 38.824 0.84 39.912C0.84 40.296 0.968 41.256 2.76 41.256C4.488 41.256 6.536 41 8.52 41C10.76 41 12.936 41.256 15.112 41.256C16.136 41.256 17.672 41.192 17.672 39.848C17.672 38.76 16.712 38.504 15.56 38.312C14.344 38.12 12.808 37.864 12.808 36.328C12.808 35.432 13.512 34.216 14.28 33.128C15.688 31.144 17.224 28.968 18.312 27.624C18.632 27.176 18.824 27.176 19.336 27.176H31.56ZM31.688 23.848H21.064C24.648 19.304 28.168 14.888 31.688 10.344L31.816 10.408L31.688 23.848ZM62.167 30.12C61.847 23.08 61.527 15.976 61.143 8.872V7.4C61.015 4.84 61.527 4.008 64.215 3.944C65.239 3.944 66.455 3.624 66.455 2.472C66.455 1.192 64.983 1.128 64.023 1.128C62.679 1.128 59.671 1.384 56.151 1.384C52.887 1.384 49.559 1.128 48.343 1.128C47.511 1.128 45.271 1.128 45.271 2.664C45.271 3.304 45.719 3.944 47.063 4.008C49.495 4.2 50.199 4.456 50.263 7.336C50.775 18.024 51.223 28.776 51.671 39.528C51.671 40.808 51.799 41.576 55.191 41.576C58.071 41.576 58.519 41.192 59.095 40.36C66.391 29.992 73.687 19.688 80.983 9.384C82.903 6.696 84.375 4.456 87.511 3.944C89.047 3.688 89.687 3.432 89.687 2.344C89.687 1.128 88.343 1.128 87.127 1.128C86.103 1.128 83.415 1.384 81.239 1.384C79.255 1.384 77.527 1.128 76.439 1.128C75.607 1.128 74.135 1.128 74.135 2.536C74.135 3.624 75.031 3.816 76.055 3.944C76.823 4.072 78.103 4.264 78.103 5.416C78.103 6.504 77.335 8.04 76.695 9C71.895 16.168 67.031 23.144 62.295 30.12H62.167Z" fill="white"/>
</svg>
